<svg width="1080" height="1080" viewBox="0 0 1080 1080" fill="none" xmlns="http://www.w3.org/2000/svg">
<!-- <rect width="1080" height="1080" fill="white"/> -->
<circle cx="540.5" cy="540.5" r="330.5" fill="white"/>
<circle cx="428.5" cy="468.5" r="37.5" fill="black"/>
<path d="M749.001 351.5C773 351.5 807 349.499 829.001 370.999C851.001 392.499 873.831 483.071 875.001 534.999C876.17 586.927 867.5 617 850.001 666C832.501 714.999 814 739.5 779.001 775C744.001 810.5 720.5 826.5 673.501 847.5C626.501 868.5 588.5 874.999 536.501 875.499C484.501 875.999 436.688 861.335 406.501 847C376.314 832.665 358.5 822.999 332.001 802.5C312.47 785.826 289.592 765.252 273.464 743.686C264.272 731.394 260.118 715.636 265.318 701.195C273.98 677.14 293.024 655.211 297.501 649.5C303.379 641.999 324.001 618.999 354.501 594.5C361.368 588.983 369.963 582.566 379.66 575.548C379.752 575.704 379.858 575.886 379.982 576.091C380.408 576.797 381.024 577.788 381.833 579.021C383.451 581.488 385.849 584.934 389.069 589.018C395.501 597.179 405.256 607.953 418.662 618.585C419.563 619.299 420.481 620.012 421.415 620.724C448.28 642.04 488.899 662.103 545.313 660.398C603.402 658.642 641.666 637.595 665.457 616.516C677.284 606.037 685.439 595.638 690.67 587.787C693.287 583.859 695.181 580.556 696.443 578.183C697.073 576.997 697.547 576.04 697.876 575.353C698.039 575.01 698.168 574.732 698.261 574.527C698.307 574.425 698.345 574.339 698.375 574.273C698.389 574.241 698.402 574.212 698.413 574.188C698.418 574.177 698.422 574.165 698.426 574.156C698.428 574.152 698.431 574.145 698.432 574.142C698.431 574.14 698.409 574.132 698.155 574.02C698.156 574.017 698.158 574.013 698.16 574.01L698.437 574.131C700.35 569.682 698.782 564.612 694.947 561.96C694.368 561.532 693.735 561.16 693.05 560.856C688.007 558.622 682.109 560.895 679.866 565.931C679.868 565.927 679.87 565.922 679.871 565.92L679.84 565.985C679.803 566.066 679.733 566.215 679.629 566.424C679.422 566.846 679.079 567.52 678.593 568.408C677.62 570.187 676.07 572.826 673.861 576.05C669.439 582.504 662.4 591.269 652.086 600.184C631.586 617.905 597.736 636.593 544.64 638.507C493.762 640.34 457.551 623.102 433.657 604.908C432.86 604.273 432.076 603.637 431.306 603.002C419.37 593.14 410.72 583.184 405.083 575.735C402.268 572.016 400.215 568.936 398.889 566.83C398.227 565.777 397.747 564.969 397.445 564.447C397.294 564.187 397.187 563.997 397.125 563.885C397.094 563.83 397.073 563.793 397.064 563.776C397.061 563.771 397.06 563.767 397.059 563.765C397.059 563.766 397.06 563.769 397.061 563.772C396.976 563.613 396.886 563.456 396.794 563.303C427.745 541.401 464.974 515.896 493.501 494C537.431 460.28 568.501 429.5 603.501 404.5C638.5 379.5 682.781 359.553 700.501 356.5C718.22 353.447 725.001 351.5 749.001 351.5ZM694.643 572.499L694.892 572.609C694.811 572.574 694.728 572.539 694.644 572.503C694.57 572.47 694.494 572.435 694.417 572.401L694.643 572.499ZM647.5 431C626.789 431 610 447.789 610 468.5C610 489.21 626.789 505.999 647.5 506C668.21 506 685 489.21 685 468.5C685 447.789 668.21 431 647.5 431Z" fill="black"/>
</svg>
